Coordinates
version=1
nRows=32
nColumns=12
inDegrees=yes

Units are S.I. units (second, meters, Newtons, ...)
Angles are in degrees

endheader
time	SC_y	SC_z	SC_x	AC_y	AC_z	AC_x	GH_y	GH_z	GH_yy	EL_x	PS_y
       0.0              -31.49          24.28          73.62          34.29         0.5995        -0.9679          130.9          17.59          58.73          45.79          32.78
    0.0252              -31.49          24.28          73.61          34.29         0.5985        -0.9664          130.9          17.59          58.75          45.79          32.79
   0.05041              -31.49          24.28          73.59          34.29         0.5973        -0.9648          130.9          17.58          58.76           45.8          32.79
   0.07561              -31.49          24.28          73.58          34.29         0.5961        -0.9632          130.9          17.58          58.78          45.81           32.8
    0.1008              -31.49          24.28          73.57          34.29         0.5948        -0.9614          130.9          17.57           58.8          45.82          32.81
     0.126              -31.49          24.28          73.56          34.29         0.5935        -0.9595          130.9          17.57          58.82          45.83          32.82
    0.1512              -31.49          24.28          73.54          34.29          0.592        -0.9574          130.9          17.56          58.84          45.85          32.83
    0.1764              -31.49          24.28          73.53          34.29         0.5904        -0.9553          130.9          17.55          58.86          45.86          32.84
    0.2016              -31.49          24.28          73.51          34.29         0.5888        -0.9529          130.8          17.55          58.88          45.87          32.85
    0.2268               -31.5          24.28           73.5          34.29          0.587        -0.9504          130.8          17.54           58.9          45.89          32.86
     0.252               -31.5          24.28          73.48          34.29          0.585        -0.9478          130.8          17.53          58.93           45.9          32.87
    0.2772               -31.5          24.28          73.46          34.28          0.583        -0.9449          130.8          17.52          58.96          45.92          32.88
    0.3024               -31.5          24.28          73.44          34.28         0.5807        -0.9418          130.8          17.52          58.99          45.94           32.9
    0.3277               -31.5          24.27          73.42          34.28         0.5783        -0.9384          130.8          17.51          59.02          45.96          32.91
    0.3529               -31.5          24.27          73.39          34.28         0.5757        -0.9348          130.8           17.5          59.06          45.98          32.93
    0.3781               -31.5          24.27          73.36          34.28         0.5728        -0.9308          130.7          17.48           59.1           46.0          32.95
    0.4033               -31.5          24.27          73.34          34.28         0.5698        -0.9266          130.7          17.47          59.14          46.02          32.97
    0.4285               -31.5          24.27           73.3          34.28         0.5664        -0.9219          130.7          17.46          59.19          46.05          32.99
    0.4537              -31.51          24.27          73.27          34.28         0.5627        -0.9168          130.7          17.44          59.24          46.08          33.01
    0.4789              -31.51          24.26          73.23          34.28         0.5587        -0.9112          130.6          17.43          59.29          46.11          33.04
    0.5041              -31.51          24.26          73.19          34.28         0.5543        -0.9051          130.6          17.41          59.36          46.15          33.07
    0.5293              -31.51          24.26          73.15          34.27         0.5494        -0.8984          130.6          17.39          59.42          46.18           33.1
    0.5545              -31.52          24.26           73.1          34.27         0.5441        -0.8909          130.5          17.37           59.5          46.23          33.13
    0.5797              -31.52          24.25          73.04          34.27         0.5381        -0.8827          130.5          17.35          59.58          46.27          33.17
    0.6049              -31.52          24.25          72.98          34.27         0.5315        -0.8735          130.5          17.32          59.67          46.33          33.21
    0.6301              -31.52          24.25          72.91          34.26         0.5242        -0.8633          130.4          17.29          59.77          46.39          33.26
    0.6553              -31.53          24.24          72.83          34.26         0.5159        -0.8518          130.4          17.26          59.88          46.45          33.31
    0.6805              -31.53          24.24          72.74          34.26         0.5066        -0.8389          130.3          17.22          60.01          46.53          33.37
    0.7057              -31.54          24.23          72.65          34.26         0.4961        -0.8244          130.2          17.18          60.16          46.61          33.44
    0.7309              -31.54          24.23          72.53          34.25         0.4842        -0.8078          130.2          17.13          60.32           46.7          33.51
    0.7561              -31.55          24.22          72.41          34.25         0.4706        -0.7889          130.1          17.08          60.51          46.81           33.6
    0.7813              -31.56          24.21          72.26          34.24          0.455        -0.7673          130.0          17.01          60.72          46.94           33.7
